<svg width="45" height="45" viewBox="0 0 45 45" fill="none" xmlns="http://www.w3.org/2000/svg">
<path d="M22.4141 44.9964C34.7931 44.9964 44.8283 34.9236 44.8283 22.4982C44.8283 10.0728 34.7931 0 22.4141 0C10.0352 0 0 10.0728 0 22.4982C0 34.9236 10.0352 44.9964 22.4141 44.9964Z" fill="#1C1E3E"/>
<path d="M22.4141 6.58932C13.6612 6.58932 6.5647 13.7124 6.5647 22.4982C6.5647 31.284 13.6612 38.4071 22.4141 38.4071C31.1671 38.4071 38.2636 31.284 38.2636 22.4982V6.58932H22.4141Z" fill="#F5F5FA"/>
<path d="M31.8282 13.0524V22.5018C31.8282 25.0264 30.8509 27.396 29.0723 29.1813C27.2936 30.9666 24.9293 31.9476 22.4177 31.9476C17.2292 31.9476 13.0072 27.7098 13.0072 22.5018C13.0072 19.9772 13.9846 17.604 15.7632 15.8223C17.5418 14.037 19.9061 13.056 22.4177 13.056H31.8282M38.2672 6.59293H22.4141C13.6612 6.59293 6.5647 13.716 6.5647 22.5018C6.5647 31.2876 13.6612 38.4107 22.4141 38.4107C31.1671 38.4107 38.2636 31.2876 38.2636 22.5018V6.58932L38.2672 6.59293Z" fill="#FF5959"/>
</svg>
